<svg xmlns="http://www.w3.org/2000/svg" xmlns:xlink="http://www.w3.org/1999/xlink" viewBox="0 0 68.88 63.88" fill="#fff" fill-rule="evenodd" stroke="#000" stroke-linecap="round" stroke-linejoin="round"><use xlink:href="#A" x="2.44" y="2.44"/><symbol id="A" overflow="visible"><g stroke="none" fill="#204156" fill-rule="nonzero"><path d="M10.979 40.241c-.488-1.464-.751-3.44-.751-6.016s.244-4.504.752-6.016c1.391-4.357 5.084-6.719 9.954-6.719 3.251-.072 6.363 1.319 8.476 3.791.146.205.195.508-.049.703l-3.147 2.781c-.244.205-.488.156-.703-.098-1.064-1.374-2.718-2.16-4.455-2.118-2.157 0-3.806 1.064-4.504 3.186-.4 1.21-.488 2.625-.488 4.479s.098 3.328.488 4.553c.703 2.059 2.342 3.147 4.504 3.147 1.737.049 3.391-.742 4.455-2.118.205-.244.449-.244.703-.049l3.147 2.781c.244.205.195.459.049.703-1.952 2.274-4.758 3.757-8.476 3.757-4.84 0-8.559-2.371-9.954-6.719M0 .024h5.612v58.311H0z"/><path d="M.107 0h40.388v5.855H.107z"/><path d="M34.83 0h5.66v54.041h-5.66z"/><path d="M.181 52.909h40.364v5.66H.181zm45.741-.015v4.601c0 .303.205.507.488.507h17.069a.48.48 0 0 0 .507-.507v-4.601c0-.303-.205-.488-.507-.488H46.4a.46.46 0 0 0-.488.488"/></g></symbol></svg>