<svg xmlns="http://www.w3.org/2000/svg" xmlns:xlink="http://www.w3.org/1999/xlink" viewBox="0 0 513 514" fill="#fff" fill-rule="evenodd" stroke="#000" stroke-linecap="round" stroke-linejoin="round"><use xlink:href="#A" x=".5" y=".5"/><symbol id="A" overflow="visible"><path d="M0 76.8C0 34.253 34.253 0 76.8 0h358.4C477.747 0 512 34.253 512 76.8v358.4c0 42.547-34.253 76.8-76.8 76.8H76.8C34.253 512 0 477.747 0 435.2z" stroke="none" fill="#d43377" fill-rule="nonzero"/><g stroke="#fff" fill="none" stroke-width="29"><path d="M108 186c0-43.212 34.788-78 78-78h140c43.212 0 78 34.788 78 78v140c0 43.212-34.788 78-78 78H186c-43.212 0-78-34.788-78-78z"/><path d="M187 256c0-38.226 30.774-69 69-69s69 30.774 69 69-30.774 69-69 69-69-30.774-69-69z"/></g><path d="M324 169a18.96 18.96 0 1 1 38 0 18.96 18.96 0 1 1-38 0z" stroke="none" fill-rule="nonzero"/></symbol></svg>