<svg xmlns="http://www.w3.org/2000/svg" xmlns:xlink="http://www.w3.org/1999/xlink" viewBox="0 0 513 513" fill="#fff" fill-rule="evenodd" stroke="#000" stroke-linecap="round" stroke-linejoin="round"><use xlink:href="#A" x=".5" y=".5"/><symbol id="A" overflow="visible"><g stroke="none" fill-rule="nonzero"><path d="M0 76.8C0 34.253 34.253 0 76.8 0h358.4C477.747 0 512 34.253 512 76.8v358.4c0 42.547-34.253 76.8-76.8 76.8H76.8C34.253 512 0 477.747 0 435.2z" fill="#0077b5"/><path d="M105 138a36.92 36.92 0 0 1 37-37 36.92 36.92 0 0 1 37 37 36.92 36.92 0 0 1-37 37 36.92 36.92 0 0 1-37-37z"/></g><path d="M244 194v198M142 194v198" stroke="#fff" stroke-linejoin="miter" stroke-linecap="butt" fill-rule="nonzero" stroke-width="66"/><path d="M276 282c0-20 13-40 36-40 24 0 33 18 33 45v105h66V279c0-61-32-89-76-89-34 0-51 19-59 32" stroke="none" fill-rule="nonzero"/></symbol></svg>