<svg xmlns="http://www.w3.org/2000/svg" xmlns:xlink="http://www.w3.org/1999/xlink" viewBox="0 0 513 514" fill="#fff" fill-rule="evenodd" stroke="#000" stroke-linecap="round" stroke-linejoin="round"><use xlink:href="#A" x=".5" y=".5"/><symbol id="A" overflow="visible"><g stroke="none" fill-rule="nonzero"><path d="M0 76.8C0 34.253 34.253 0 76.8 0h358.4C477.747 0 512 34.253 512 76.8v358.4c0 42.547-34.253 76.8-76.8 76.8H76.8C34.253 512 0 477.747 0 435.2z" fill="#bd081b"/><path d="M265 56c-109 0-164 78-164 144 0 39 15 74 47 87 5 2 10 0 12-5l4-19c2-6 1-8-3-13-9-11-15-25-15-45 0-58 43-110 113-110 62 0 96 38 96 88 0 67-30 122-73 122-24 0-42-19-36-44 6-29 20-60 20-81 0-19-10-35-31-35-25 0-44 26-44 60 0 21 7 36 7 36l-30 125c-8 37-1 83 0 87 0 3 4 4 5 2 2-3 32-39 42-75l16-64c8 16 31 29 56 29 74 0 124-67 124-157 0-69-58-132-146-132z"/></g></symbol></svg>