<svg xmlns="http://www.w3.org/2000/svg" xmlns:xlink="http://www.w3.org/1999/xlink" viewBox="0 0 152 151" fill="#fff" fill-rule="evenodd" stroke="#000" stroke-linecap="round" stroke-linejoin="round"><use xlink:href="#A" x=".5" y=".5"/><symbol id="A" overflow="visible"><g stroke="none" fill-rule="nonzero"><path d="M0 22.5C0 10.035 10.035 0 22.5 0h105C139.965 0 150 10.035 150 22.5v105c0 12.465-10.035 22.5-22.5 22.5h-105C10.035 150 0 139.965 0 127.5z" fill="#3bd75f"/><path d="M18.75 75A56.13 56.13 0 0 1 75 18.75 56.13 56.13 0 0 1 131.25 75 56.13 56.13 0 0 1 75 131.25 56.13 56.13 0 0 1 18.75 75z"/></g><g stroke="#3bd75f" fill="none"><path d="M41.309 57.129c21.973-5.859 48.047-4.395 69.727 7.031" stroke-width="10.547"/><path d="M44.531 75.293c17.871-4.981 42.188-3.809 59.473 7.031" stroke-width="9.082"/><path d="M45.703 92.285c15.82-3.516 33.984-4.981 52.148 5.859" stroke-width="7.031"/></g></symbol></svg>