<svg xmlns="http://www.w3.org/2000/svg" xmlns:xlink="http://www.w3.org/1999/xlink" viewBox="0 0 513 514" fill="#fff" fill-rule="evenodd" stroke="#000" stroke-linecap="round" stroke-linejoin="round"><use xlink:href="#A" x=".5" y=".5"/><symbol id="A" overflow="visible"><g stroke="none" fill-rule="nonzero"><path d="M0 76.8C0 34.253 34.253 0 76.8 0h358.4C477.747 0 512 34.253 512 76.8v358.4c0 42.547-34.253 76.8-76.8 76.8H76.8C34.253 512 0 477.747 0 435.2z" fill="#1da1f2"/><path d="M437 152c-12 6-26 10-40 12 15-9 26-23 32-40-14 8-29 14-45 17-22.353-22.894-57.133-28.29-85.372-13.244S255.467 174.677 262 206c-56-3-110-29-145-74a68 68 0 0 0 22 94c-11 0-22-2-32-7 1 33 24 62 56 69-10 3-21 3-32 1 10 29 37 49 67 50-29 24-68 35-105 29 63.076 42.09 144.591 44.674 210.207 6.664S407.133 264.656 402 189c14-10 26-22 35-37"/></g></symbol></svg>