<svg xmlns="http://www.w3.org/2000/svg" xmlns:xlink="http://www.w3.org/1999/xlink" viewBox="0 0 152 151" fill="#fff" fill-rule="evenodd" stroke="#000" stroke-linecap="round" stroke-linejoin="round"><use xlink:href="#A" x=".5" y=".5"/><symbol id="A" overflow="visible"><g stroke="none" fill-rule="nonzero"><path d="M0 22.5C0 10.035 10.035 0 22.5 0h105C139.965 0 150 10.035 150 22.5v105c0 12.465-10.035 22.5-22.5 22.5h-105C10.035 150 0 139.965 0 127.5z" fill="#6441a4"/><path d="M33.691 29.59l-6.445 16.406v66.797h22.852v12.305h12.891L75 112.793h18.457l24.902-24.902V29.59zm76.172 54.199L95.801 97.852H72.949l-12.305 12.305V97.852H41.602V38.086h68.262zM95.801 54.492v24.902h-8.789V54.492zm-22.852 0v24.902h-8.496V54.492z"/></g></symbol></svg>